<svg style="display: none;"><symbol viewBox="0 0 135 135" id="admin_lager"><title>admin_lager</title> <g> <g> <path d="M90,20h25l0,5h5v5h0v30h-5v5H75v-5h-5V25h5v-5H90L90,20z M110,30v-5H80v5h-5v25h5v5h30v-5h5V30H110
			L110,30L110,30z"/> </g> <g> <path d="M90,70h25l0,5h5v5h0v30h-5v5H75v-5h-5V75h5v-5H90L90,70z M110,80v-5H80v5h-5v25h5v5h30v-5h5V80H110
			L110,80L110,80z"/> </g> <polygon points="60,85 60,110 55,110 55,115 50,115 50,115 20,115 20,110 15,110 15,70 20,70 20,65 55,65 
		55,70 60,70 60,85 60,85 	"/> <path d="M125,5v5h5v5h5v105h-5v5h-5v5H10v-5H5v-5H0V15h5v-5h5V5H125L125,5z M15,10v5h-5v5H5v95h5v5h5v5h105
		v-5h5v-5h5V20h-5v-5h-5v-5H15L15,10z"/> </g> </symbol><symbol viewBox="0 0 135 135" id="admin_zurueck"><title>admin_zurueck</title> <g> <polygon points="40,0 40,135 45,135 45,5 120,5 120,135 125,135 125,0 40,0 40,0 	"/> <polygon points="115,55 115,80 35,80 35,90 30,90 30,85 25,85 25,80 20,80 20,75 15,75 15,70 10,70 10,65 
		15,65 15,60 20,60 20,55 25,55 25,50 30,50 30,45 35,45 35,55 115,55 	"/> </g> </symbol></svg>