<svg style="display: none;"><symbol viewBox="0 0 135 135" id="lager_abgang"><title>lager_abgang</title> <g> <g> <path d="M90,20h25l0,5h5v5h0v30h-5v5H75v-5h-5V25h5v-5H90L90,20z M110,30v-5H80v5h-5v25h5v5h30v-5h5V30H110
			L110,30L110,30z"/> </g> <g> <path d="M90,70h25l0,5h5v5h0v30h-5v5H75v-5h-5V75h5v-5H90L90,70z M110,80v-5H80v5h-5v25h5v5h30v-5h5V80H110
			L110,80L110,80z"/> </g> <polygon points="55,95 20,95 20,45 15,45 15,40 20,40 20,35 25,35 25,30 30,30 30,25 35,25 35,20 40,20 
		40,25 45,25 45,30 50,30 50,35 55,35 55,40 60,40 60,45 55,45 55,95 55,95 	"/> <polygon points="0,30 5,30 5,115 10,115 10,120 15,120 15,125 120,125 120,120 125,120 125,115 130,115 
		130,20 125,20 125,15 120,15 120,10 80,10 80,5 125,5 125,10 130,10 130,15 135,15 135,120 130,120 130,125 125,125 125,130 
		10,130 10,125 5,125 5,120 0,120 0,30 	"/> </g> </symbol><symbol viewBox="0 0 135 135" id="lager_check"><title>lager_check</title> <polygon points="135,35 130,35 130,30 125,30 125,25 120,25 120,30 115,30 115,35 110,35 110,40 105,40 
	105,45 100,45 100,50 95,50 95,55 90,55 90,60 85,60 85,65 80,65 80,70 75,70 75,75 70,75 70,80 65,80 65,85 60,85 60,90 55,90 
	55,95 50,95 50,90 45,90 45,85 40,85 40,80 35,80 35,75 30,75 30,70 25,70 25,65 20,65 20,60 15,60 15,55 10,55 10,60 5,60 5,65 
	0,65 0,0 135,0 "/> <polygon points="0,70 5,70 5,75 10,75 10,80 15,80 15,85 20,85 20,90 25,90 25,95 30,95 30,100 35,100 
	35,105 40,105 40,110 45,110 45,115 50,115 50,120 55,120 55,115 60,115 60,110 65,110 65,105 70,105 70,100 75,100 75,95 80,95 
	80,90 85,90 85,85 90,85 90,80 95,80 95,75 100,75 100,70 105,70 105,65 110,65 110,60 115,60 115,55 120,55 120,50 125,50 125,45 
	130,45 130,40 135,40 135,135 0,135 "/> </symbol><symbol viewBox="0 0 135 135" id="lager_inventur"><title>lager_inventur</title> <g> <polygon points="35,85 40,85 40,70 45,70 45,65 50,65 50,60 55,60 55,55 60,55 60,30 55,30 55,25 20,25 
		20,30 15,30 15,40 20,40 20,35 25,35 25,30 50,30 50,35 55,35 55,50 50,50 50,55 45,55 45,60 40,60 40,65 35,65 35,85 35,85 	"/> <g> <path d="M90,20h25l0,5h5v5h0v30h-5v5H75v-5h-5V25h5v-5H90L90,20z M110,30v-5H80v5h-5v25h5v5h30v-5h5V30H110
			L110,30L110,30z"/> </g> <g> <path d="M90,70h25l0,5h5v5h0v30h-5v5H75v-5h-5V75h5v-5H90L90,70z M110,80v-5H80v5h-5v25h5v5h30v-5h5V80H110
			L110,80L110,80z"/> </g> <polygon points="35,95 40,95 40,100 35,100 35,95 35,95 	"/> <path d="M125,5v5h5v5h5v105h-5v5h-5v5H10v-5H5v-5H0V15h5v-5h5V5H125L125,5z M15,10v5h-5v5H5v95h5v5h5v5h105
		v-5h5v-5h5V20h-5v-5h-5v-5H15L15,10z"/> <polygon points="55,130 10,130 10,125 5,125 5,120 0,120 0,30 5,30 5,115 10,115 10,120 15,120 15,125 
		120,125 120,120 125,120 125,115 130,115 130,30 135,30 135,120 130,120 130,125 125,125 125,130 55,130 55,130 	"/> </g> </symbol><symbol viewBox="0 0 135 135" id="lager_lager"><title>lager_lager</title> <g> <path d="M125,5v5h5v5h5v105h-5v5h-5v5H10v-5H5v-5H0V15h5v-5h5V5H125L125,5z M15,10v5h-5v5H5v95h5v5h5v5h105
		v-5h5v-5h5V20h-5v-5h-5v-5H15L15,10z"/> <g> <path d="M90,20h25l0,5h5v5h0v30h-5v5H75v-5h-5V25h5v-5H90L90,20z M110,30v-5H80v5h-5v25h5v5h30v-5h5V30H110
			L110,30L110,30z"/> </g> <g> <path d="M90,70h25l0,5h5v5h0v30h-5v5H75v-5h-5V75h5v-5H90L90,70z M110,80v-5H80v5h-5v25h5v5h30v-5h5V80H110
			L110,80L110,80z"/> </g> <polygon points="60,85 60,110 55,110 55,115 50,115 50,115 20,115 20,110 15,110 15,70 20,70 20,65 55,65 
		55,70 60,70 60,85 60,85 	"/> </g> </symbol><symbol viewBox="0 0 135 135" id="lager_lieferung"><title>lager_lieferung</title> <g> <polygon points="0.2,30 5.2,30 5.2,115 10.2,115 10.2,120 15.2,120 15.2,125 120.2,125 120.2,120 125.2,120 
		125.2,115 130.2,115 130.2,20 125.2,20 125.2,15 120.2,15 120.2,10 80.2,10 80.2,5 125.2,5 125.2,10 130.2,10 130.2,15 135.2,15 
		135.2,120 130.2,120 130.2,125 125.2,125 125.2,130 10.2,130 10.2,125 5.2,125 5.2,120 0.2,120 0.2,30 	"/> <g> <path d="M90.3,20h25l0,5h5v5h0v30h-5v5h-40v-5h-5V25h5v-5H90.3L90.3,20z M110.3,30v-5h-30v5h-5v25h5v5h30
			v-5h5V30H110.3L110.3,30L110.3,30z"/> </g> <g> <path d="M90.3,70h25l0,5h5v5h0v30h-5v5h-40v-5h-5V75h5v-5H90.3L90.3,70z M110.3,80v-5h-30v5h-5v25h5v5h30
			v-5h5V80H110.3L110.3,80L110.3,80z"/> </g> <polygon points="20.3,25 55.3,25 55.3,75 60.3,75 60.3,80 55.3,80 55.3,85 50.3,85 50.3,90 45.3,90 45.3,95 
		40.3,95 40.3,100 35.3,100 35.3,95 30.3,95 30.3,90 25.3,90 25.3,85 20.3,85 20.3,80 15.3,80 15.3,75 20.3,75 20.3,25 20.3,25 	"/> </g> </symbol><symbol viewBox="0 0 135 135" id="lager_loch"><title>lager_loch</title> <path d="M125,5v5h5v5h5v105h-5v5h-5v5H10v-5H5v-5H0V15h5v-5h5V5H125L125,5z M15,10v5h-5v5H5v95h5v5h5v5h105
	v-5h5v-5h5V20h-5v-5h-5v-5H15L15,10z"/> <polygon points="120,90 120,110 115,110 115,115 50,115 50,115 20,115 20,110 15,110 15,25 20,25 20.1,20 
	115,20 115,25 120,25 120,60 120,75 "/> </symbol><symbol viewBox="0 0 135 135" id="lager_zurueck"><title>lager_zurueck</title> <g> <polygon points="40,0 40,135 45,135 45,5 120,5 120,135 125,135 125,0 40,0 40,0 	"/> <polygon points="115,55 115,80 35,80 35,90 30,90 30,85 25,85 25,80 20,80 20,75 15,75 15,70 10,70 10,65 
		15,65 15,60 20,60 20,55 25,55 25,50 30,50 30,45 35,45 35,55 115,55 	"/> </g> </symbol></svg>