<svg style="display: none;">
	<symbol viewBox="0 0 135 135" id="icons_admin">
		<title>icons_admin</title>
		<path d="M35,75h-5v5h-5v5h-5v-5h-5v-5h-5v-5H5v-5H0v-5h5v-5h5v-5h5v-5h5v-5h5v5h5v5h5v5h5v5h95v5h-10v10h-5V65h-5v15h-5V65h-5v10h-5V65H40v5h-5V75L35,75z M30,60v-5h-5v-5h-5v5h-5v5l-5,0v5h5v5h5v5h5v-5h5v-5h5v-5H30L30,60z"/>
	</symbol>
	<symbol viewBox="0 0 135 135" id="icons_lager">
		<title>icons_lager</title>
		<g>
			<path d="M125,5v5h5v5h5v105h-5v5h-5v5H10v-5H5v-5H0V15h5v-5h5V5H125L125,5z M15,10v5h-5v5H5v95h5v5h5v5h105v-5h5v-5h5V20h-5v-5h-5v-5H15L15,10z"/> 
			<g>
				<path d="M90,20h25l0,5h5v5h0v30h-5v5H75v-5h-5V25h5v-5H90L90,20z M110,30v-5H80v5h-5v25h5v5h30v-5h5V30H110L110,30L110,30z"/>
			</g>
			<g>
				<path d="M90,70h25l0,5h5v5h0v30h-5v5H75v-5h-5V75h5v-5H90L90,70z M110,80v-5H80v5h-5v25h5v5h30v-5h5V80H110L110,80L110,80z"/>
			</g>
			<polygon points="60,85 60,110 55,110 55,115 50,115 50,115 20,115 20,110 15,110 15,70 20,70 20,65 55,65 55,70 60,70 60,85 60,85 	"/>
		</g>
	</symbol>
</svg>