<svg style="display: none;"><symbol viewBox="0 0 135 135" id="icons_abgang"><title>icons_abgang</title> <g> <g> <path d="M90,20h25l0,5h5v5h0v30h-5v5H75v-5h-5V25h5v-5H90L90,20z M110,30v-5H80v5h-5v25h5v5h30v-5h5V30H110
			L110,30L110,30z"/> </g> <g> <path d="M90,70h25l0,5h5v5h0v30h-5v5H75v-5h-5V75h5v-5H90L90,70z M110,80v-5H80v5h-5v25h5v5h30v-5h5V80H110
			L110,80L110,80z"/> </g> <polygon points="55,95 20,95 20,45 15,45 15,40 20,40 20,35 25,35 25,30 30,30 30,25 35,25 35,20 40,20 
		40,25 45,25 45,30 50,30 50,35 55,35 55,40 60,40 60,45 55,45 55,95 55,95 	"/> <polygon points="0,30 5,30 5,115 10,115 10,120 15,120 15,125 120,125 120,120 125,120 125,115 130,115 
		130,20 125,20 125,15 120,15 120,10 80,10 80,5 125,5 125,10 130,10 130,15 135,15 135,120 130,120 130,125 125,125 125,130 
		10,130 10,125 5,125 5,120 0,120 0,30 	"/> </g> </symbol><symbol viewBox="0 0 135 135" id="icons_abrechnung"><title>icons_abrechnung</title> <polygon points="25,70 25,75 15,75 15,80 25,80 25,95 30,95 30,105 35,105 35,115 40,115 40,120 50,120 
	50,125 55,125 55,130 100,130 100,125 105,125 105,120 95,120 95,125 60,125 60,120 55,120 55,115 45,115 45,110 40,110 40,100 
	35,100 35,90 30,90 30,80 95,80 95,75 30,75 30,60 95,60 95,55 30,55 30,45 35,45 35,35 40,35 40,25 45,25 45,20 55,20 55,15 60,15 
	60,10 95,10.1 95,15 105,15 105,10 100,10 100,5 55,5 55,10 50,10 50,15 40,15 40,20 35,20 35,30 30,30 30,40 25,40 25,55 15,55 
	15,60 25,60 25,70 25,70 25,70 "/> </symbol><symbol viewBox="0 0 135 135" id="icons_admin"><title>icons_admin</title> <path d="M35,75h-5v5h-5v5h-5v-5h-5v-5h-5v-5H5v-5H0v-5h5v-5h5v-5h5v-5h5v-5h5v5h5v5h5v5h5v5h95v5h-10v10h-5
	V65h-5v15h-5V65h-5v10h-5V65H40v5h-5V75L35,75z M30,60v-5h-5v-5h-5v5h-5v5l-5,0v5h5v5h5v5h5v-5h5v-5h5v-5H30L30,60z"/> </symbol><symbol viewBox="0 0 135 135" id="icons_check"><title>icons_check</title> <polygon points="135,35 130,35 130,30 125,30 125,25 120,25 120,30 115,30 115,35 110,35 110,40 105,40 
	105,45 100,45 100,50 95,50 95,55 90,55 90,60 85,60 85,65 80,65 80,70 75,70 75,75 70,75 70,80 65,80 65,85 60,85 60,90 55,90 
	55,95 50,95 50,90 45,90 45,85 40,85 40,80 35,80 35,75 30,75 30,70 25,70 25,65 20,65 20,60 15,60 15,55 10,55 10,60 5,60 5,65 
	0,65 0,0 135,0 "/> <polygon points="0,70 5,70 5,75 10,75 10,80 15,80 15,85 20,85 20,90 25,90 25,95 30,95 30,100 35,100 
	35,105 40,105 40,110 45,110 45,115 50,115 50,120 55,120 55,115 60,115 60,110 65,110 65,105 70,105 70,100 75,100 75,95 80,95 
	80,90 85,90 85,85 90,85 90,80 95,80 95,75 100,75 100,70 105,70 105,65 110,65 110,60 115,60 115,55 120,55 120,50 125,50 125,45 
	130,45 130,40 135,40 135,135 0,135 "/> </symbol><symbol viewBox="0 0 135 135" id="icons_email"><title>icons_email</title> <path d="M90,90v5H50v-5h-5v-5h-5V50h5v-5h5v-5h40v5h5v-5h5v10h-5v35h5v5h10v-5h5v-5h5v-5h5V25h-5v-5h-5v-5h-5
	v-5H25v5h-5v5h-5v5h-5v85h5v5h5v5h5v5h85v-5h5v-5h5v-5h5v-5h5v10h-5v5h-5v5h-5v5H20v-5h-5v-5h-5v-5H5V20h5v-5h5v-5h5V5h95v5h5v5h5v5
	h5v60h-5v5h-5v5h-5v5H95v-5H90L90,90z M90,85V50h-5v-5H55v5h-5v5h-5v25h5v5h5v5h30v-5H90L90,85z"/> </symbol><symbol viewBox="0 0 135 135" id="icons_inventur"><title>icons_inventur</title> <g> <polygon points="35,85 40,85 40,70 45,70 45,65 50,65 50,60 55,60 55,55 60,55 60,30 55,30 55,25 20,25 
		20,30 15,30 15,40 20,40 20,35 25,35 25,30 50,30 50,35 55,35 55,50 50,50 50,55 45,55 45,60 40,60 40,65 35,65 35,85 35,85 	"/> <g> <path d="M90,20h25l0,5h5v5h0v30h-5v5H75v-5h-5V25h5v-5H90L90,20z M110,30v-5H80v5h-5v25h5v5h30v-5h5V30H110
			L110,30L110,30z"/> </g> <g> <path d="M90,70h25l0,5h5v5h0v30h-5v5H75v-5h-5V75h5v-5H90L90,70z M110,80v-5H80v5h-5v25h5v5h30v-5h5V80H110
			L110,80L110,80z"/> </g> <polygon points="35,95 40,95 40,100 35,100 35,95 35,95 	"/> <path d="M125,5v5h5v5h5v105h-5v5h-5v5H10v-5H5v-5H0V15h5v-5h5V5H125L125,5z M15,10v5h-5v5H5v95h5v5h5v5h105
		v-5h5v-5h5V20h-5v-5h-5v-5H15L15,10z"/> <polygon points="55,130 10,130 10,125 5,125 5,120 0,120 0,30 5,30 5,115 10,115 10,120 15,120 15,125 
		120,125 120,120 125,120 125,115 130,115 130,30 135,30 135,120 130,120 130,125 125,125 125,130 55,130 55,130 	"/> </g> </symbol><symbol viewBox="0 0 135 135" id="icons_lager"><title>icons_lager</title> <g> <path d="M125,5v5h5v5h5v105h-5v5h-5v5H10v-5H5v-5H0V15h5v-5h5V5H125L125,5z M15,10v5h-5v5H5v95h5v5h5v5h105
		v-5h5v-5h5V20h-5v-5h-5v-5H15L15,10z"/> <g> <path d="M90,20h25l0,5h5v5h0v30h-5v5H75v-5h-5V25h5v-5H90L90,20z M110,30v-5H80v5h-5v25h5v5h30v-5h5V30H110
			L110,30L110,30z"/> </g> <g> <path d="M90,70h25l0,5h5v5h0v30h-5v5H75v-5h-5V75h5v-5H90L90,70z M110,80v-5H80v5h-5v25h5v5h30v-5h5V80H110
			L110,80L110,80z"/> </g> <polygon points="60,85 60,110 55,110 55,115 50,115 50,115 20,115 20,110 15,110 15,70 20,70 20,65 55,65 
		55,70 60,70 60,85 60,85 	"/> </g> </symbol><symbol viewBox="0 0 135 135" id="icons_lager_schwarz"><title>icons_lager_schwarz</title> <g> <g> <path d="M90,20h25l0,5h5v5h0v30h-5v5H75v-5h-5V25h5v-5H90L90,20z M110,30v-5H80v5h-5v25h5v5h30v-5h5V30H110
			L110,30L110,30z"/> </g> <g> <path d="M90,70h25l0,5h5v5h0v30h-5v5H75v-5h-5V75h5v-5H90L90,70z M110,80v-5H80v5h-5v25h5v5h30v-5h5V80H110
			L110,80L110,80z"/> </g> <polygon points="60,85 60,110 55,110 55,115 50,115 50,115 20,115 20,110 15,110 15,70 20,70 20,65 55,65 
		55,70 60,70 60,85 60,85 	"/> <path d="M125,5v5h5v5h5v105h-5v5h-5v5H10v-5H5v-5H0V15h5v-5h5V5H125L125,5z M15,10v5h-5v5H5v95h5v5h5v5h105
		v-5h5v-5h5V20h-5v-5h-5v-5H15L15,10z"/> </g> </symbol><symbol viewBox="0 0 135 135" id="icons_lieferung"><title>icons_lieferung</title> <g> <polygon points="0.2,30 5.2,30 5.2,115 10.2,115 10.2,120 15.2,120 15.2,125 120.2,125 120.2,120 125.2,120 
		125.2,115 130.2,115 130.2,20 125.2,20 125.2,15 120.2,15 120.2,10 80.2,10 80.2,5 125.2,5 125.2,10 130.2,10 130.2,15 135.2,15 
		135.2,120 130.2,120 130.2,125 125.2,125 125.2,130 10.2,130 10.2,125 5.2,125 5.2,120 0.2,120 0.2,30 	"/> <g> <path d="M90.3,20h25l0,5h5v5h0v30h-5v5h-40v-5h-5V25h5v-5H90.3L90.3,20z M110.3,30v-5h-30v5h-5v25h5v5h30
			v-5h5V30H110.3L110.3,30L110.3,30z"/> </g> <g> <path d="M90.3,70h25l0,5h5v5h0v30h-5v5h-40v-5h-5V75h5v-5H90.3L90.3,70z M110.3,80v-5h-30v5h-5v25h5v5h30
			v-5h5V80H110.3L110.3,80L110.3,80z"/> </g> <polygon points="20.3,25 55.3,25 55.3,75 60.3,75 60.3,80 55.3,80 55.3,85 50.3,85 50.3,90 45.3,90 45.3,95 
		40.3,95 40.3,100 35.3,100 35.3,95 30.3,95 30.3,90 25.3,90 25.3,85 20.3,85 20.3,80 15.3,80 15.3,75 20.3,75 20.3,25 20.3,25 	"/> </g> </symbol><symbol viewBox="0 0 135 135" id="icons_ratte1"><title>icons_ratte1</title> <g> <polyline points="114.9,95 119.9,95 119.9,100 109.9,100 109.9,105 99.9,105 99.9,110 109.9,110 109.9,115 
		94.9,115 94.9,105 89.9,105 89.9,110 79.9,110 79.9,115 74.9,115 74.9,120 64.9,120 64.9,130 54.9,130 54.9,125 59.9,125 59.9,120 
		24.9,120 24.9,115 19.9,115 19.9,110 4.9,110 4.9,105 24.9,105 24.9,110 29.9,110 29.9,115 49.9,115 49.9,110 54.9,110 54.9,100 
		59.9,100 59.9,95 64.9,95 64.9,90 74.9,90 74.9,85 94.9,85 94.9,90 99.9,90 99.9,80 104.9,80 104.9,85 109.9,85 109.9,90 114.9,90 
			"/> <polygon points="55,15 65,15 65,10 70,10 70,60 80,60 80,65 55,65 55,60 65,60 65,20 55,20 55,15 	"/> </g> </symbol><symbol viewBox="0 0 135 135" id="icons_ratte2"><title>icons_ratte2</title> <g> <polyline points="114.9,95 119.9,95 119.9,100 109.9,100 109.9,105 99.9,105 99.9,110 109.9,110 109.9,115 
		94.9,115 94.9,105 89.9,105 89.9,110 79.9,110 79.9,115 74.9,115 74.9,120 64.9,120 64.9,130 54.9,130 54.9,125 59.9,125 59.9,120 
		24.9,120 24.9,115 19.9,115 19.9,110 4.9,110 4.9,105 24.9,105 24.9,110 29.9,110 29.9,115 49.9,115 49.9,110 54.9,110 54.9,100 
		59.9,100 59.9,95 64.9,95 64.9,90 74.9,90 74.9,85 94.9,85 94.9,90 99.9,90 99.9,80 104.9,80 104.9,85 109.9,85 109.9,90 114.9,90 
			"/> <polygon points="80,55 80,65 50,65 50,50 55,50 55,45 59.9,45 60,40 65,40 65,35 70,35 65,35 70,35 70,30 
		75,30 75,20 70,20 70,15 60,15 60,20 50,20 50,15 55,15 55,10 75,10 75,15 80,15 80,35 75,35 80,35 75,35 75,40 70,40 70,45 65,45 
		65,50 60,50 60,55 55,55 55,60 75,60 75,55 80,55 	"/> </g> </symbol><symbol viewBox="0 0 135 135" id="icons_ratte3"><title>icons_ratte3</title> <g> <polyline points="114.9,95 119.9,95 119.9,100 109.9,100 109.9,105 99.9,105 99.9,110 109.9,110 109.9,115 
		94.9,115 94.9,105 89.9,105 89.9,110 79.9,110 79.9,115 74.9,115 74.9,120 64.9,120 64.9,130 54.9,130 54.9,125 59.9,125 59.9,120 
		24.9,120 24.9,115 19.9,115 19.9,110 4.9,110 4.9,105 24.9,105 24.9,110 29.9,110 29.9,115 49.9,115 49.9,110 54.9,110 54.9,100 
		59.9,100 59.9,95 64.9,95 64.9,90 74.9,90 74.9,85 94.9,85 94.9,90 99.9,90 99.9,80 104.9,80 104.9,85 109.9,85 109.9,90 114.9,90 
			"/> <polyline points="70,40 70,35 75,35 75,30 80,30 80,20 75,20 75,15 65,15 65,20 55,20 55,15 60,15 60,10 
		80,10 80,15 85,15 85,35 80,35 80,40 75,40 	"/> <polyline points="70,35 70,40 75,40 75,45 80,45 80,55 75,55 75,60 65,60 65,55 55,55 55,60 60,60 60,65 
		80,65 80,60 85,60 85,40 80,40 80,35 75,35 	"/> </g> </symbol><symbol viewBox="0 0 135 135" id="icons_tuer"><title>icons_tuer</title> <g> <polygon points="25,0 25,135 30,135 30,5 105,5 105,135 110,135 110,0 25,0 25,0 	"/> <polygon points="85,65 95,65 95,75 85,75 85,70 75,70 75,65 85,65 	"/> </g> </symbol><symbol viewBox="0 0 135 135" id="icons_zurueck"><title>icons_zurueck</title> <g> <polygon points="40,0 40,135 45,135 45,5 120,5 120,135 125,135 125,0 40,0 40,0 	"/> <polygon points="115,55 115,80 35,80 35,90 30,90 30,85 25,85 25,80 20,80 20,75 15,75 15,70 10,70 10,65 
		15,65 15,60 20,60 20,55 25,55 25,50 30,50 30,45 35,45 35,55 115,55 	"/> </g> </symbol></svg>