<svg style="display: none;"><symbol viewBox="0 0 135 135" id="door_back"><title>door_back</title> <polygon points="120,55 120,80 40,80 40,90 35,90 35,85 30,85 30,80 25,80 25,75 20,75 20,70 15,70 15,65 
	20,65 20,60 25,60 25,55 30,55 30,50 35,50 35,45 40,45 40,55 120,55 "/> </symbol><symbol viewBox="0 0 135 135" id="door_check"><title>door_check</title> <polygon points="65,85 70,85 70,70 75,70 75,65 80,65 80,60 85,60 85,55 90,55 90,30 85,30 85,25 50,25 
	50,30 45,30 45,40 50,40 50,35 55,35 55,30 80,30 80,35 85,35 85,50 80,50 80,55 75,55 75,60 70,60 70,65 65,65 65,85 65,85 "/> <polygon points="65.1,95 70.1,95 70.1,100 65.1,100 65.1,95 65.1,95 "/> </symbol><symbol viewBox="0 0 135 135" id="door_ok"><title>door_ok</title> <polygon points="135,35 130,35 130,30 125,30 125,25 120,25 120,30 115,30 115,35 110,35 110,40 105,40 
	105,45 100,45 100,50 95,50 95,55 90,55 90,60 85,60 85,65 80,65 80,70 75,70 75,75 70,75 70,80 65,80 65,85 60,85 60,90 55,90 
	55,95 50,95 50,90 45,90 45,85 40,85 40,80 35,80 35,75 30,75 30,70 25,70 25,65 20,65 20,60 15,60 15,55 10,55 10,60 5,60 5,65 
	0,65 0,70 5,70 5,75 10,75 10,80 15,80 15,85 20,85 20,90 25,90 25,95 30,95 30,100 35,100 35,105 40,105 40,110 45,110 45,115 
	50,115 50,120 55,120 55,115 60,115 60,110 65,110 65,105 70,105 70,100 75,100 75,95 80,95 80,90 85,90 85,85 90,85 90,80 95,80 
	95,75 100,75 100,70 105,70 105,65 110,65 110,60 115,60 115,55 120,55 120,50 125,50 125,45 130,45 130,40 135,40 "/> </symbol><symbol viewBox="0 0 135 50" id="door_ratte"><title>door_ratte</title> <polyline points="119.9,15 124.9,15 124.9,20 114.9,20 114.9,25 104.9,25 104.9,30 114.9,30 114.9,35 
	99.9,35 99.9,25 94.9,25 94.9,30 84.9,30 84.9,35 79.9,35 79.9,40 69.9,40 69.9,50 59.9,50 59.9,45 64.9,45 64.9,40 29.9,40 
	29.9,35 24.9,35 24.9,30 9.9,30 9.9,25 29.9,25 29.9,30 34.9,30 34.9,35 54.9,35 54.9,30 59.9,30 59.9,20 64.9,20 64.9,15 69.9,15 
	69.9,10 79.9,10 79.9,5 99.9,5 99.9,10 104.9,10 104.9,0 109.9,0 109.9,5 114.9,5 114.9,10 119.9,10 "/> </symbol></svg>