<?xml version="1.0" encoding="utf-8"?>
<!-- Generator: Adobe Illustrator 17.1.0, SVG Export Plug-In . SVG Version: 6.00 Build 0)  -->
<!DOCTYPE svg PUBLIC "-//W3C//DTD SVG 1.1//EN" "http://www.w3.org/Graphics/SVG/1.1/DTD/svg11.dtd">
<svg version="1.1" id="Layer_1" xmlns="http://www.w3.org/2000/svg" xmlns:xlink="http://www.w3.org/1999/xlink" x="0px" y="0px"
	 viewBox="0 0 135 110" style="enable-background:new 0 0 135 110;" xml:space="preserve">
<style type="text/css">
	.st0{fill:#1C9169;}
</style>
<g>
	<polygon class="st0" points="35,65 40,65 40,50 45,50 45,45 50,45 50,40 55,40 55,35 60,35 60,10 55,10 55,5 20,5 20,10 15,10 
		15,15 15,20 20,20 20,15 25,15 25,10 50,10 50,15 55,15 55,30 50,30 50,35 45,35 45,40 40,40 40,45 35,45 	"/>
	<g>
		<path class="st0" d="M90,0h5h5h5h0h5h5c0,0,0,5,0,5h5v5h0v5v5v5v5v5v5h-5v5h-5h-5h-5h0h-5c0,0-5,0-5,0h-5h-5h-5v-5h-5v-5v-5v-5v-5
			v-5v-5V5h5V0h5h5C85,0,90,0,90,0z M110,10V5h-5h0h-5h-5h-5c0,0-5,0-5,0h-5v5h-5v5v5v5v5v5h5v5h5c0,0,5,0,5,0h5h5h0h5h5v-5h5v-5v-5
			v-5v-5v-5H110z"/>
	</g>
	<g>
		<path class="st0" d="M90,50h5h5h5h0h5h5c0,0,0,5,0,5h5v5h0v5v5v5v5v5v5h-5v5h-5h-5h-5h0h-5c0,0-5,0-5,0h-5h-5h-5v-5h-5v-5v-5v-5
			v-5v-5v-5v-5h5v-5h5h5C85,50,90,50,90,50z M110,60v-5h-5h0h-5h-5h-5c0,0-5,0-5,0h-5v5h-5v5v5v5v5v5h5v5h5c0,0,5,0,5,0h5h5h0h5h5
			v-5h5v-5v-5v-5v-5v-5H110z"/>
	</g>
	<polygon class="st0" points="55,110 50,110 45,110 40,110 35,110 30,110 25,110 20,110 15,110 10,110 10,105 5,105 5,100 0,100 
		0,95 0,90 0,85 0,80 0,75 0,70 0,65 0,60 0,55 0,50 0,45 0,40 0,35 0,30 0,25 0,20 0,15 0,10 5,10 5,15 5,20 5,25 5,30 5,35 5,40 
		5,45 5,50 5,55 5,60 5,65 5,70 5,75 5,80 5,85 5,90 5,95 10,95 10,100 15,100 15,105 20,105 25,105 30,105 35,105 40,105 45,105 
		50,105 55,105 60,105 60,105 65,105 70,105 70,105 75,105 80,105 85,105 90,105 95,105 100,105 105,105 110,105 115,105 120,105 
		120,100 125,100 125,95 130,95 130,90 130,85 130,80 130,75 130,70 130,65 130,60 130,55 130,50 130,45 130,40 130,35 130,30 
		130,25 130,20 130,15 130,10 135,10 135,15 135,20 135,25 135,30 135,35 135,40 135,45 135,50 135,55 135,60 135,65 135,70 135,75 
		135,80 135,85 135,90 135,95 135,100 130,100 130,105 125,105 125,110 120,110 115,110 110,110 105,110 100,110 95,110 90,110 
		85,110 80,110 75,110 70,110 70,110 65,110 60,110 60,110 	"/>
	<rect x="35" y="75" class="st0" width="5" height="5"/>
</g>
</svg>
