<svg class="ratte_svg" xmlns="http://www.w3.org/2000/svg" xmlns:xlink="http://www.w3.org/1999/xlink" version="1.1" id="Layer_1" x="0px" y="0px" viewBox="0 0 959.4 381" style="enable-background:new 0 0 959.4 381;" xml:space="preserve">
<g>
	<path  d="M33.6 168c12.8 1.9 25.7 1.9 38.6 2.8c22.9 1.6 40 7.3 56.1 23.9c13.7 14.1 24.6 30.7 38 45.2 c6.9 7.5 14.6 14.7 24.1 18.9c12.4 5.5 25.5 3.6 38.5 1.5c26-4.1 52.6-5.5 78.7-8.6c11.7-1.4 23.7-2.1 35.1 1.3 c11.7 3.4 21.5 8.2 34 7.1c10.3-0.9 22.6-3.1 31.2-9c8.6-6 11.1-16.7 13.3-26.3c5.6-24.4 9.2-49.3 17.2-73.1 c14.9-44.3 46.7-78.6 87.9-100.1c22-11.5 46-17.2 69.1-25.9c24.2-9 47.8-16.9 73.9-17c26.1-0.1 50.9 7.3 76.6 10.6 c20.9 2.7 42.5 1.2 63.1 5.4c3.5 0.7 12.9 3.3 15.1-1.1c2.4-4.6-2-13.3-1.4-18.5c1-8.9 11.7-4.1 16.4-1.3 c9.5 5.8 13.8 13.6 17.4 23.6c3.6 9.8 24.1 8.9 32.6 12.2c12.3 4.7 23.4 12.3 34.6 19.1c11.4 6.9 22.8 14.2 32.3 23.6 c8.6 8.5-0.6 17.8-7.9 21.9c-5.4 3-9.2 8.1-14 11.9c-3.8 3-8.6 3-12.5 5.6c-4.2 2.8-6.3 12.5-8.2 17c-1.4 3.2-2.8 6.4-4.3 9.5 c-1.7 3.6-3.6 7.3-6.3 10.3c-2.2 2.4-5.9 3.7-4.3-1.1c1.4-4.5 4.4-8.2 6.1-12.5c2.8-7.2 5.4-14.6 8.6-21.7 c-11.5 15.9-21.8 34.6-36.5 47.9c-6.4 5.8 2.3-8.8 3.6-10.5c7.4-9.5 13.2-20.7 19.7-30.9c-9.3 6.4-14.7 16.3-23 23.6 c-3.4 3-9.8 5.5-13.1 9.8c-0.3 0.4-0.8 0.6-1.2 1c-0.3 0.3-1.7 1.3-0.7 0c3-7.6 12-13.4 16.7-20.1c3.9-5.5 11.1-11.8 13.7-18.1 c1.7-4.3-10.6 5-11.7 5.9c-3.1 2.6-6.4 4.8-9.6 7.2c-3.2 2.4-9 4.3-11.2 7.6c0-6.1 8.1-8.6 11-13c-6 2-12.5 2.4-18.7 3.6 c-7.9 1.5-12.8 5.7-19.7 9.3c-7 3.6-13.2 7.5-19.8 11.9c-5 3.3-0.7 6.4 2.6 10c9.5 10.3 18.5 10.1 31.1 5.9 c8.9-3 18.6-4.3 13.4 8.4c9.6-0.8 11.8 2.7 11.5 12c-0.1 2.8-0.3 6.3-2.3 8.4c-3.1 3.2-7.6-0.7-10.9-1.2c-8.1-1.3-3.1 10.4-3.8 14 c-0.9 4.4-11.2-3.8-12.6-4.8c-6.4-4.6-11.5-3-19.1-1.2c-13.1 3.1-19.2-6.7-29.8-12.5c-22-11.9-48.7-14.2-73-18.2 c-10.6-1.7-24.4-5-34.9-1.5c-9.9 3.3-16.6 12.4-24.1 19.1c-9.1 8.1-19 15.2-29.1 22c-9.2 6.1-20.3 10.8-25.2 21.3 c-10.1 21.6-29.6 38-47.9 52.8c-16 13-36.2 21.3-48.9 38.1c-11.7 15.6 9.6 22.3 13.2 36.6c-4.8 0-8.5-3.7-12 0.8 c-2.7 3.5-5.1 8.4-8.6 11.2c-3.4 2.8-5.7 0.4-9.2-0.2c-2.6-0.4-7.2 2.3-8.1-2c-1.5-6.6 3-6.5-5.9-5.4c-5.6 0.7-1.8-9.5-1.7-12.1 c-2.7 0.5-12.4 2.7-13.3-1.5c-0.8-3.5 4.2-7.2 6.5-8.7c3.8-2.5 3.8-8.5 6.4-12.2c5.9-8.5 12.3-13.6 15.1-24 c0.7-2.5 5.8-25.6 4.7-25.9c-11.1-3.3-22.9-4.4-34.2-6.9c-9.2-2-17.9-5.1-27.4-6.1c-13.7-1.4-25.6 1.8-38.9 3.9 c-12 1.9-24.8-1.1-36.6-3.1c-13.8-2.3-27.6-4.8-41.7-4.3c-12.4 0.4-24.7 2.5-37.1 4.1c-13.6 1.7-27.3 1.7-40.9 2.4 c-25.8 1.4-48.4 2.8-70.9-12.3c-18.6-12.5-31.9-30.8-45.2-48.5c-12.1-16.1-24.3-28.1-44.5-32.4c-8.9-1.9-17.9-2.8-26.9-4 c-5-0.7-50.8-14-52.4-14.8C-0.8 165.4 22.6 166.4 33.6 168z"/>
</g>
</svg>
