<svg xmlns="http://www.w3.org/2000/svg" viewBox="0 0 135 135" enable-background="new 0 0 135 135"><g fill="#1c9169"><path d="m.2 30h5v85h5v5h5v5h105v-5h5v-5h5v-95h-5v-5h-5v-5h-40v-5h45v5h5v5h5v105h-5v5h-5v5h-115v-5h-5v-5h-5v-90"/><path d="m90.3 20h25v5h5v5 30h-5v5h-40v-5h-5v-35h5v-5h15m20 10v-5h-30v5h-5v25h5v5h30v-5h5v-25h-5"/><path d="m90.3 70h25v5h5v5 30h-5v5h-40v-5h-5v-35h5v-5h15m20 10v-5h-30v5h-5v25h5v5h30v-5h5v-25h-5"/><path d="m20.3 25h35v50h5v5h-5v5h-5v5h-5v5h-5v5h-5v-5h-5v-5h-5v-5h-5v-5h-5v-5h5v-50"/></g></svg>