<svg xmlns="http://www.w3.org/2000/svg" viewBox="0 0 135 135" enable-background="new 0 0 135 135"><g fill="#1c9169"><path d="m35 85h5v-15h5v-5h5v-5h5v-5h5v-25h-5v-5h-35v5h-5v10h5v-5h5v-5h25v5h5v15h-5v5h-5v5h-5v5h-5v20"/><path d="m90 20h25v5h5v5 30h-5v5h-40v-5h-5v-35h5v-5h15m20 10v-5h-30v5h-5v25h5v5h30v-5h5v-25h-5"/><path d="m90 70h25v5h5v5 30h-5v5h-40v-5h-5v-35h5v-5h15m20 10v-5h-30v5h-5v25h5v5h30v-5h5v-25h-5"/><path d="m35 95h5v5h-5v-5"/><path d="m125 5v5h5v5h5v105h-5v5h-5v5h-115v-5h-5v-5h-5v-105h5v-5h5v-5h115m-110 5v5h-5v5h-5v95h5v5h5v5h105v-5h5v-5h5v-95h-5v-5h-5v-5h-105"/><path d="m55 130h-45v-5h-5v-5h-5v-90h5v85h5v5h5v5h105v-5h5v-5h5v-85h5v90h-5v5h-5v5h-70"/></g></svg>