<svg xmlns="http://www.w3.org/2000/svg" viewBox="0 0 135 135" enable-background="new 0 0 135 135"><g fill="#1c9169"><path d="m125 5v5h5v5h5v105h-5v5h-5v5h-115v-5h-5v-5h-5v-105h5v-5h5v-5h115m-110 5v5h-5v5h-5v95h5v5h5v5h105v-5h5v-5h5v-95h-5v-5h-5v-5h-105"/><path d="m90 20h25v5h5v5 30h-5v5h-40v-5h-5v-35h5v-5h15m20 10v-5h-30v5h-5v25h5v5h30v-5h5v-25h-5"/><path d="m90 70h25v5h5v5 30h-5v5h-40v-5h-5v-35h5v-5h15m20 10v-5h-30v5h-5v25h5v5h30v-5h5v-25h-5"/><path d="m60 85v25h-5v5h-5-30v-5h-5v-40h5v-5h35v5h5v15"/></g></svg>