<svg xmlns="http://www.w3.org/2000/svg" viewBox="0 0 135 110" enable-background="new 0 0 135 110"><g fill="#1c9169"><path d="m90 0h5 5 5 5 5c0 0 0 5 0 5h5v5 5 5 5 5 5 5h-5v5h-5-5-5-5c0 0-5 0-5 0h-5-5-5v-5h-5v-5-5-5-5-5-5-5h5v-5h5 5c0 0 5 0 5 0m20 10v-5h-5-5-5-5c0 0-5 0-5 0h-5v5h-5v5 5 5 5 5h5v5h5c0 0 5 0 5 0h5 5 5 5v-5h5v-5-5-5-5-5h-5"/><path d="m90 50h5 5 5 5 5c0 0 0 5 0 5h5v5 5 5 5 5 5 5h-5v5h-5-5-5-5c0 0-5 0-5 0h-5-5-5v-5h-5v-5-5-5-5-5-5-5h5v-5h5 5c0 0 5 0 5 0m20 10v-5h-5-5-5-5c0 0-5 0-5 0h-5v5h-5v5 5 5 5 5h5v5h5c0 0 5 0 5 0h5 5 5 5v-5h5v-5-5-5-5-5h-5"/><path d="m55 110h-5-5-5-5-5-5-5-5-5v-5h-5v-5h-5v-5-5-5-5-5-5-5-5-5-5-5-5-5-5-5-5-5-5h5v5 5 5 5 5 5 5 5 5 5 5 5 5 5 5 5 5h5v5h5v5h5 5 5 5 5 5 5 5 5 5 5 5 5 5 5 5 5 5 5 5 5v-5h5v-5h5v-5-5-5-5-5-5-5-5-5-5-5-5-5-5-5-5-5h5v5 5 5 5 5 5 5 5 5 5 5 5 5 5 5 5 5 5h-5v5h-5v5h-5-5-5-5-5-5-5-5-5-5-5-5-5z"/><path d="m20 5h35v50h5v5h-5v5h-5v5h-5v5h-5v5h-5v-5h-5v-5h-5v-5h-5v-5h-5v-5h5z"/></g></svg>