<?xml version="1.0" encoding="utf-8"?>
<!-- Generator: Adobe Illustrator 17.1.0, SVG Export Plug-In . SVG Version: 6.00 Build 0)  -->
<!DOCTYPE svg PUBLIC "-//W3C//DTD SVG 1.1//EN" "http://www.w3.org/Graphics/SVG/1.1/DTD/svg11.dtd">
<svg version="1.1" id="Layer_3" xmlns="http://www.w3.org/2000/svg" xmlns:xlink="http://www.w3.org/1999/xlink" x="0px" y="0px"
	 width="135px" height="135px" viewBox="0 0 135 135" style="enable-background:new 0 0 135 135;" xml:space="preserve">
<g>
	<polygon style="fill:#252321;" points="40,0 40,135 45,135 45,5 120,5 120,135 125,135 125,0 40,0 40,0 	"/>
	<polygon style="fill:#252321;" points="115,55 115,80 35,80 35,90 30,90 30,85 25,85 25,80 20,80 20,75 15,75 15,70 10,70 10,65 
		15,65 15,60 20,60 20,55 25,55 25,50 30,50 30,45 35,45 35,55 115,55 	"/>
</g>
</svg>
