<?xml version="1.0" encoding="utf-8"?>
<!-- Generator: Adobe Illustrator 17.1.0, SVG Export Plug-In . SVG Version: 6.00 Build 0)  -->
<!DOCTYPE svg PUBLIC "-//W3C//DTD SVG 1.1//EN" "http://www.w3.org/Graphics/SVG/1.1/DTD/svg11.dtd">
<svg version="1.1" id="Layer_3" xmlns="http://www.w3.org/2000/svg" xmlns:xlink="http://www.w3.org/1999/xlink" x="0px" y="0px"
	 width="135px" height="135px" viewBox="0 0 135 135" style="enable-background:new 0 0 135 135;" xml:space="preserve">
<polygon style="fill:#252321;" points="25,70 25,75 15,75 15,80 25,80 25,95 30,95 30,105 35,105 35,115 40,115 40,120 50,120 
	50,125 55,125 55,130 100,130 100,125 105,125 105,120 95,120 95,125 60,125 60,120 55,120 55,115 45,115 45,110 40,110 40,100 
	35,100 35,90 30,90 30,80 95,80 95,75 30,75 30,60 95,60 95,55 30,55 30,45 35,45 35,35 40,35 40,25 45,25 45,20 55,20 55,15 60,15 
	60,10 95,10.1 95,15 105,15 105,10 100,10 100,5 55,5 55,10 50,10 50,15 40,15 40,20 35,20 35,30 30,30 30,40 25,40 25,55 15,55 
	15,60 25,60 25,70 25,70 25,70 "/>
</svg>
