<?xml version="1.0" encoding="utf-8"?>
<!-- Generator: Adobe Illustrator 17.1.0, SVG Export Plug-In . SVG Version: 6.00 Build 0)  -->
<!DOCTYPE svg PUBLIC "-//W3C//DTD SVG 1.1//EN" "http://www.w3.org/Graphics/SVG/1.1/DTD/svg11.dtd">
<svg version="1.1" id="Layer_3" xmlns="http://www.w3.org/2000/svg" xmlns:xlink="http://www.w3.org/1999/xlink" x="0px" y="0px"
	 width="135px" height="135px" viewBox="0 0 135 135" style="enable-background:new 0 0 135 135;" xml:space="preserve">
<path style="fill:#252321;" d="M90,90v5H50v-5h-5v-5h-5V50h5v-5h5v-5h40v5h5v-5h5v10h-5v35h5v5h10v-5h5v-5h5v-5h5V25h-5v-5h-5v-5h-5
	v-5H25v5h-5v5h-5v5h-5v85h5v5h5v5h5v5h85v-5h5v-5h5v-5h5v-5h5v10h-5v5h-5v5h-5v5H20v-5h-5v-5h-5v-5H5V20h5v-5h5v-5h5V5h95v5h5v5h5v5
	h5v60h-5v5h-5v5h-5v5H95v-5H90L90,90z M90,85V50h-5v-5H55v5h-5v5h-5v25h5v5h5v5h30v-5H90L90,85z"/>
</svg>
