<?xml version="1.0" encoding="utf-8"?>
<!-- Generator: Adobe Illustrator 17.1.0, SVG Export Plug-In . SVG Version: 6.00 Build 0)  -->
<!DOCTYPE svg PUBLIC "-//W3C//DTD SVG 1.1//EN" "http://www.w3.org/Graphics/SVG/1.1/DTD/svg11.dtd">
<svg version="1.1" id="Layer_3" xmlns="http://www.w3.org/2000/svg" xmlns:xlink="http://www.w3.org/1999/xlink" x="0px" y="0px"
	 width="135px" height="50px" viewBox="0 0 135 50" style="enable-background:new 0 0 135 50;" xml:space="preserve">
<polyline style="fill:#252321;" points="119.9,15 124.9,15 124.9,20 114.9,20 114.9,25 104.9,25 104.9,30 114.9,30 114.9,35 
	99.9,35 99.9,25 94.9,25 94.9,30 84.9,30 84.9,35 79.9,35 79.9,40 69.9,40 69.9,50 59.9,50 59.9,45 64.9,45 64.9,40 29.9,40 
	29.9,35 24.9,35 24.9,30 9.9,30 9.9,25 29.9,25 29.9,30 34.9,30 34.9,35 54.9,35 54.9,30 59.9,30 59.9,20 64.9,20 64.9,15 69.9,15 
	69.9,10 79.9,10 79.9,5 99.9,5 99.9,10 104.9,10 104.9,0 109.9,0 109.9,5 114.9,5 114.9,10 119.9,10 "/>
</svg>
