<?xml version="1.0" encoding="utf-8"?>
<!-- Generator: Adobe Illustrator 17.1.0, SVG Export Plug-In . SVG Version: 6.00 Build 0)  -->
<!DOCTYPE svg PUBLIC "-//W3C//DTD SVG 1.1//EN" "http://www.w3.org/Graphics/SVG/1.1/DTD/svg11.dtd">
<svg version="1.1" id="Layer_3" xmlns="http://www.w3.org/2000/svg" xmlns:xlink="http://www.w3.org/1999/xlink" x="0px" y="0px"
	 width="135px" height="135px" viewBox="0 0 135 135" style="enable-background:new 0 0 135 135;" xml:space="preserve">
<polygon style="fill:#252321;" points="135,35 130,35 130,30 125,30 125,25 120,25 120,30 115,30 115,35 110,35 110,40 105,40 
	105,45 100,45 100,50 95,50 95,55 90,55 90,60 85,60 85,65 80,65 80,70 75,70 75,75 70,75 70,80 65,80 65,85 60,85 60,90 55,90 
	55,95 50,95 50,90 45,90 45,85 40,85 40,80 35,80 35,75 30,75 30,70 25,70 25,65 20,65 20,60 15,60 15,55 10,55 10,60 5,60 5,65 
	0,65 0,70 5,70 5,75 10,75 10,80 15,80 15,85 20,85 20,90 25,90 25,95 30,95 30,100 35,100 35,105 40,105 40,110 45,110 45,115 
	50,115 50,120 55,120 55,115 60,115 60,110 65,110 65,105 70,105 70,100 75,100 75,95 80,95 80,90 85,90 85,85 90,85 90,80 95,80 
	95,75 100,75 100,70 105,70 105,65 110,65 110,60 115,60 115,55 120,55 120,50 125,50 125,45 130,45 130,40 135,40 "/>
</svg>
