<?xml version="1.0" encoding="utf-8"?>
<!-- Generator: Adobe Illustrator 17.1.0, SVG Export Plug-In . SVG Version: 6.00 Build 0)  -->
<!DOCTYPE svg PUBLIC "-//W3C//DTD SVG 1.1//EN" "http://www.w3.org/Graphics/SVG/1.1/DTD/svg11.dtd">
<svg version="1.1" id="Layer_3" xmlns="http://www.w3.org/2000/svg" xmlns:xlink="http://www.w3.org/1999/xlink" x="0px" y="0px"
	 width="135px" height="135px" viewBox="0 0 135 135" style="enable-background:new 0 0 135 135;" xml:space="preserve">
<polyline style="fill:#252321;" points="114.9,95 119.9,95 119.9,100 109.9,100 109.9,105 99.9,105 99.9,110 109.9,110 109.9,115 
	94.9,115 94.9,105 89.9,105 89.9,110 79.9,110 79.9,115 74.9,115 74.9,120 64.9,120 64.9,130 54.9,130 54.9,125 59.9,125 59.9,120 
	24.9,120 24.9,115 19.9,115 19.9,110 4.9,110 4.9,105 24.9,105 24.9,110 29.9,110 29.9,115 49.9,115 49.9,110 54.9,110 54.9,100 
	59.9,100 59.9,95 64.9,95 64.9,90 74.9,90 74.9,85 94.9,85 94.9,90 99.9,90 99.9,80 104.9,80 104.9,85 109.9,85 109.9,90 114.9,90 
	"/>
<polyline style="fill:#252321;" points="70,35 70,40 75,40 75,45 80,45 80,55 75,55 75,60 65,60 65,55 55,55 55,60 60,60 60,65 
	80,65 80,60 85,60 85,40 80,40 80,35 85,35 85,15 80,15 80,10 60,10 60,15 55,15 55,20 65,20 65,15 75,15 75,20 80,20 80,30 75,30 
	75,35 "/>
</svg>
