<?xml version="1.0" encoding="utf-8"?>
<!-- Generator: Adobe Illustrator 17.1.0, SVG Export Plug-In . SVG Version: 6.00 Build 0)  -->
<!DOCTYPE svg PUBLIC "-//W3C//DTD SVG 1.1//EN" "http://www.w3.org/Graphics/SVG/1.1/DTD/svg11.dtd">
<svg version="1.1" id="Layer_3" xmlns="http://www.w3.org/2000/svg" xmlns:xlink="http://www.w3.org/1999/xlink" x="0px" y="0px"
	 width="135px" height="135px" viewBox="0 0 135 135" style="enable-background:new 0 0 135 135;" xml:space="preserve">
<g>
	<polyline style="fill:#252321;" points="114.9,95 119.9,95 119.9,100 109.9,100 109.9,105 99.9,105 99.9,110 109.9,110 109.9,115 
		94.9,115 94.9,105 89.9,105 89.9,110 79.9,110 79.9,115 74.9,115 74.9,120 64.9,120 64.9,130 54.9,130 54.9,125 59.9,125 59.9,120 
		24.9,120 24.9,115 19.9,115 19.9,110 4.9,110 4.9,105 24.9,105 24.9,110 29.9,110 29.9,115 49.9,115 49.9,110 54.9,110 54.9,100 
		59.9,100 59.9,95 64.9,95 64.9,90 74.9,90 74.9,85 94.9,85 94.9,90 99.9,90 99.9,80 104.9,80 104.9,85 109.9,85 109.9,90 114.9,90 
			"/>
	<polygon style="fill:#252321;" points="80,55 80,65 50,65 50,50 55,50 55,45 59.9,45 60,40 65,40 65,35 70,35 65,35 70,35 70,30 
		75,30 75,20 70,20 70,15 60,15 60,20 50,20 50,15 55,15 55,10 75,10 75,15 80,15 80,35 75,35 80,35 75,35 75,40 70,40 70,45 65,45 
		65,50 60,50 60,55 55,55 55,60 75,60 75,55 80,55 	"/>
</g>
</svg>
