<?xml version="1.0" encoding="utf-8"?>
<!-- Generator: Adobe Illustrator 17.1.0, SVG Export Plug-In . SVG Version: 6.00 Build 0)  -->
<!DOCTYPE svg PUBLIC "-//W3C//DTD SVG 1.1//EN" "http://www.w3.org/Graphics/SVG/1.1/DTD/svg11.dtd">
<svg version="1.1" id="Layer_3" xmlns="http://www.w3.org/2000/svg" xmlns:xlink="http://www.w3.org/1999/xlink" x="0px" y="0px"
	 width="135px" height="135px" viewBox="0 0 135 135" style="enable-background:new 0 0 135 135;" xml:space="preserve">
<g>
	<polygon style="fill:#1C9169;" points="0.2,30 5.2,30 5.2,115 10.2,115 10.2,120 15.2,120 15.2,125 120.2,125 120.2,120 125.2,120 
		125.2,115 130.2,115 130.2,20 125.2,20 125.2,15 120.2,15 120.2,10 80.2,10 80.2,5 125.2,5 125.2,10 130.2,10 130.2,15 135.2,15 
		135.2,120 130.2,120 130.2,125 125.2,125 125.2,130 10.2,130 10.2,125 5.2,125 5.2,120 0.2,120 0.2,30 	"/>
	<g>
		<path style="fill:#1C9169;" d="M90.3,20h25l0,5h5v5h0v30h-5v5h-40v-5h-5V25h5v-5H90.3L90.3,20z M110.3,30v-5h-30v5h-5v25h5v5h30
			v-5h5V30H110.3L110.3,30L110.3,30z"/>
	</g>
	<g>
		<path style="fill:#1C9169;" d="M90.3,70h25l0,5h5v5h0v30h-5v5h-40v-5h-5V75h5v-5H90.3L90.3,70z M110.3,80v-5h-30v5h-5v25h5v5h30
			v-5h5V80H110.3L110.3,80L110.3,80z"/>
	</g>
	<polygon style="fill:#1C9169;" points="20.3,25 55.3,25 55.3,75 60.3,75 60.3,80 55.3,80 55.3,85 50.3,85 50.3,90 45.3,90 45.3,95 
		40.3,95 40.3,100 35.3,100 35.3,95 30.3,95 30.3,90 25.3,90 25.3,85 20.3,85 20.3,80 15.3,80 15.3,75 20.3,75 20.3,25 20.3,25 	"/>
</g>
</svg>
