<?xml version="1.0" encoding="utf-8"?>
<!-- Generator: Adobe Illustrator 17.1.0, SVG Export Plug-In . SVG Version: 6.00 Build 0)  -->
<!DOCTYPE svg PUBLIC "-//W3C//DTD SVG 1.1//EN" "http://www.w3.org/Graphics/SVG/1.1/DTD/svg11.dtd">
<svg version="1.1" id="Layer_3" xmlns="http://www.w3.org/2000/svg" xmlns:xlink="http://www.w3.org/1999/xlink" x="0px" y="0px"
	 width="135px" height="135px" viewBox="0 0 135 135" style="enable-background:new 0 0 135 135;" xml:space="preserve">
<g>
	<g>
		<path style="fill:#1C9169;" d="M90,20h25l0,5h5v5h0v30h-5v5H75v-5h-5V25h5v-5H90L90,20z M110,30v-5H80v5h-5v25h5v5h30v-5h5V30H110
			L110,30L110,30z"/>
	</g>
	<g>
		<path style="fill:#1C9169;" d="M90,70h25l0,5h5v5h0v30h-5v5H75v-5h-5V75h5v-5H90L90,70z M110,80v-5H80v5h-5v25h5v5h30v-5h5V80H110
			L110,80L110,80z"/>
	</g>
	<polygon style="fill:#E73C1E;" points="55,95 20,95 20,45 15,45 15,40 20,40 20,35 25,35 25,30 30,30 30,25 35,25 35,20 40,20 
		40,25 45,25 45,30 50,30 50,35 55,35 55,40 60,40 60,45 55,45 55,95 55,95 	"/>
	<polygon style="fill:#1C9169;" points="0,30 5,30 5,115 10,115 10,120 15,120 15,125 120,125 120,120 125,120 125,115 130,115 
		130,20 125,20 125,15 120,15 120,10 80,10 80,5 125,5 125,10 130,10 130,15 135,15 135,120 130,120 130,125 125,125 125,130 
		10,130 10,125 5,125 5,120 0,120 0,30 	"/>
</g>
</svg>
