<?xml version="1.0" encoding="utf-8"?>
<!-- Generator: Adobe Illustrator 17.1.0, SVG Export Plug-In . SVG Version: 6.00 Build 0)  -->
<!DOCTYPE svg PUBLIC "-//W3C//DTD SVG 1.1//EN" "http://www.w3.org/Graphics/SVG/1.1/DTD/svg11.dtd">
<svg version="1.1" id="Layer_3" xmlns="http://www.w3.org/2000/svg" xmlns:xlink="http://www.w3.org/1999/xlink" x="0px" y="0px"
	 width="135px" height="135px" viewBox="0 0 135 135" style="enable-background:new 0 0 135 135;" xml:space="preserve">
<path style="fill:#252321;" d="M125,5v5h5v5h5v105h-5v5h-5v5H10v-5H5v-5H0V15h5v-5h5V5H125L125,5z M15,10v5h-5v5H5v95h5v5h5v5h105
	v-5h5v-5h5V20h-5v-5h-5v-5H15L15,10z"/>
<polygon style="fill:#252321;" points="120,90 120,110 115,110 115,115 50,115 50,115 20,115 20,110 15,110 15,25 20,25 20.1,20 
	115,20 115,25 120,25 120,60 120,75 "/>
</svg>
